# xmcd
#
# Track frame offsets: 
#        150
#        18589
#        33254
#        48495
#        67162
#        86743
#        106414
#        122212
#        135709
#        154332
#        170063
#        188024
#        208581
#        227403
#        244948
#        261860
#        276438
#        294473
#        313941
#
# Disc length: 4623 seconds
#
# Revision: 2
# Processed by: cddbd v1.5.2PL0 Copyright (c) Steve Scherf et al.
# Submitted via: ExactAudioCopyFreeDBPlugin 1.0
#
DISCID=23120d13
DTITLE=Various Artist - The Very Best Of Late Night Moves [Disc 1]
DYEAR=2007
DGENRE=Pop
TTITLE0=Dido - Here With Me
TTITLE1=Gabrielle - Out Of Reach
TTITLE2=Corinne Bailey Rae - Trouble Sleeping
TTITLE3=Kylie Minogue - Put Yourself In My Place
TTITLE4=Missy Higgins - The Special Two
TTITLE5=Sarah McLachlan - Angel
TTITLE6=KT Tunstall - Other Side Of The World
TTITLE7=Lily Allen - Littlest Things
TTITLE8=Macy Gray - Still
TTITLE9=Alicia Keys - Fallin'
TTITLE10=Joss Stone - Spoiled
TTITLE11=Eurythmics - Miracle Of Love
TTITLE12=Sugababes - Ace Reject
TTITLE13=Everything But The Girl - Missing (Todd Terry Remix)
TTITLE14=Britney Spears - Everytime
TTITLE15=Tina Cousins - Wonderful Life (Ballad Version)
TTITLE16=DJ Sammy and Yanou featuring Do - Heaven (Candlelight Mix)
TTITLE17=Gaelle - Give It Back
TTITLE18=Sade - No Ordinary Love
EXTD=
EXTT0=
EXTT1=
EXTT2=
EXTT3=
EXTT4=
EXTT5=
EXTT6=
EXTT7=
EXTT8=
EXTT9=
EXTT10=
EXTT11=
EXTT12=
EXTT13=
EXTT14=
EXTT15=
EXTT16=
EXTT17=
EXTT18=
PLAYORDER=
